ply
format ascii 1.0
comment made by Robin Albers
comment this file is the edge of a hexagon
element vertex 12
property float x
property float y
property float z
element face 6
property list uchar int vertex_index
end_header
0.8660254037844387 -0.5 0
0.8660254037844387 0.5 0
0 1.0 0
-0.8660254037844387 0.5 0
-0.8660254037844386 -0.5 0
0 -1.0 0
0.8227241335952168 -0.475 0
0.8227241335952168 0.475 0
0 0.95 0
-0.8227241335952168 0.475 0
-0.8227241335952167 -0.475 0
0 -0.95 0
4 0 1 7 6
4 1 2 8 7
4 2 3 9 8
4 3 4 10 9
4 4 5 11 10
4 5 0 6 11
